<svg width="33" height="27" viewBox="0 0 33 27" fill="none" xmlns="http://www.w3.org/2000/svg">
<path d="M32.3142 15.0953C32.1292 13.7934 31.6783 12.5588 30.9736 11.4262C30.359 10.4377 29.5704 9.55849 28.6292 8.81126L28.6317 8.80892L18.7463 1.21637C18.7391 1.21009 18.7317 1.20418 18.724 1.19866C18.3953 0.946885 17.9503 0.80835 17.4715 0.80835C16.992 0.80835 16.5296 0.947194 16.1702 1.19946C15.7837 1.46943 15.5628 1.82765 15.5473 2.20895C15.5332 2.5647 15.7029 2.90699 16.0264 3.17382C16.6627 3.67582 17.2975 4.18874 17.9331 4.70228C18.55 5.20088 19.1857 5.71436 19.8183 6.21426L7.71018 6.20605C6.32549 6.20605 5.38265 6.85628 5.18869 7.94488C5.10347 8.4217 5.25386 8.94597 5.59005 9.34751C5.94673 9.77318 6.46459 10.008 7.04817 10.008L7.97121 10.0086C9.24636 10.0086 10.5271 10.0054 11.8062 10.0024L13.0259 9.99952L2.03679 18.1295L1.99316 18.1614C1.37935 18.6319 0.977498 19.2915 0.890797 19.9709C0.825077 20.4857 0.945162 20.9561 1.23822 21.3318C1.58749 21.7797 2.13281 22.026 2.77384 22.026C3.40358 22.026 4.04616 21.7874 4.58401 21.3529L10.5183 16.4964C10.4929 16.7336 10.4621 17.0815 10.4657 17.334C10.4723 17.7338 10.6007 18.536 10.8039 19.1873C11.2238 20.5258 11.931 21.7504 12.9059 22.8258C13.9203 23.9447 15.1557 24.8319 16.5776 25.4621C18.0808 26.127 19.6968 26.4645 21.3807 26.4645H21.3963C23.0857 26.4604 24.7068 26.1175 26.2149 25.4451C27.6391 24.8074 28.874 23.9166 29.8845 22.7979C30.8582 21.717 31.5644 20.4903 31.9835 19.153C32.1908 18.491 32.3236 17.8079 32.3794 17.1164C32.4312 16.4481 32.4089 15.7681 32.3142 15.0953ZM21.5038 21.5104C17.7926 21.5104 14.7831 18.8183 14.7831 15.4971C14.7831 12.1764 17.7927 9.48419 21.5038 9.48419C25.2151 9.48419 28.2244 12.1764 28.2244 15.4971C28.2245 18.8183 25.2151 21.5104 21.5038 21.5104Z" fill="#F4792B"/>
<path d="M24.3433 17.5617C25.0386 16.8804 25.4345 15.96 25.3798 14.9687C25.3259 14.0061 24.8561 13.1568 24.1483 12.555C23.4526 11.9634 22.5188 11.6023 21.4983 11.6023C20.4779 11.6023 19.5438 11.9633 18.8482 12.555C18.1408 13.1568 17.6711 14.0067 17.6178 14.9696C17.5634 15.9601 17.9585 16.8804 18.6535 17.5617C19.3609 18.2558 20.3703 18.6917 21.4984 18.6917C22.6269 18.6917 23.6361 18.2558 24.3433 17.5617Z" fill="#0E548B"/>
</svg>
