<svg width="49" height="48" viewBox="0 0 49 48" fill="none" xmlns="http://www.w3.org/2000/svg">
<rect x="0.333344" width="48" height="48" rx="24" fill="black"/>
<path d="M24.4933 24.3203C24.4933 21.915 26.4432 19.9651 28.8485 19.9651C31.2538 19.9651 33.2037 21.915 33.2037 24.3203C33.2037 26.7256 31.2538 28.6755 28.8485 28.6755C26.4432 28.6755 24.4933 26.7256 24.4933 24.3203Z" fill="#1ABCFE"/>
<path d="M15.783 33.0306C15.783 30.6254 17.7329 28.6754 20.1382 28.6754H24.4934V33.0306C24.4934 35.436 22.5435 37.3858 20.1382 37.3858C17.7329 37.3858 15.783 35.436 15.783 33.0306Z" fill="#0ACF83"/>
<path d="M24.4933 11.2546V19.965L28.8485 19.9651C31.2539 19.9651 33.2037 18.0151 33.2037 15.6098C33.2037 13.2045 31.2539 11.2546 28.8485 11.2546H24.4933Z" fill="#FF7262"/>
<path d="M15.783 15.6099C15.783 18.0152 17.7329 19.965 20.1382 19.965L24.4933 19.965V11.2546L20.1382 11.2547C17.7329 11.2547 15.783 13.2045 15.783 15.6099Z" fill="#F24E1E"/>
<path d="M15.783 24.3203C15.783 26.7256 17.7329 28.6754 20.1382 28.6754H24.4934L24.4933 19.965L20.1382 19.965C17.7329 19.965 15.783 21.915 15.783 24.3203Z" fill="#A259FF"/>
</svg>
