<svg width="48" height="48" viewBox="0 0 48 48" fill="none" xmlns="http://www.w3.org/2000/svg">
<rect width="48" height="48" rx="24" fill="#0D87FF"/>
<path fill-rule="evenodd" clip-rule="evenodd" d="M11.8396 16.71C11.0934 16.71 10.4885 17.3099 10.4885 18.0499V19.3899V30.1098C10.4885 30.8499 11.0934 31.4498 11.8396 31.4498H12.5152C13.2614 31.4498 13.8664 30.8499 13.8664 30.1098V20.0599H19.9465C20.6928 20.0599 21.2977 19.46 21.2977 18.7199V18.0499C21.2977 17.3099 20.6928 16.71 19.9465 16.71H13.1908H11.8396ZM25.3512 16.71H24.6756C23.9293 16.71 23.3244 17.3099 23.3244 18.0499V30.1098C23.3244 30.8499 23.9293 31.4498 24.6756 31.4498H25.3512C26.0974 31.4498 26.7023 30.8499 26.7023 30.1098V18.0499C26.7023 17.3099 26.0974 16.71 25.3512 16.71ZM36.1604 16.71H35.4848C34.7385 16.71 34.1336 17.3099 34.1336 18.0499V30.1098C34.1336 30.8499 34.7385 31.4498 35.4848 31.4498H36.1604C36.9066 31.4498 37.5115 30.8499 37.5115 30.1098V18.0499C37.5115 17.3099 36.9066 16.71 36.1604 16.71ZM30.0802 19.3899H30.7558C31.502 19.3899 32.1069 19.9898 32.1069 20.7299V28.0998C32.1069 28.8399 31.502 29.4398 30.7558 29.4398H30.0802C29.3339 29.4398 28.729 28.8399 28.729 28.0998V20.7299C28.729 19.9898 29.3339 19.3899 30.0802 19.3899ZM17.9198 23.4099H16.5687C15.8224 23.4099 15.2175 24.0098 15.2175 24.7499V25.4199C15.2175 26.1599 15.8224 26.7598 16.5687 26.7598H17.9198C18.6661 26.7598 19.271 26.1599 19.271 25.4199V24.7499C19.271 24.0098 18.6661 23.4099 17.9198 23.4099Z" fill="white"/>
</svg>
