<svg width="49" height="48" viewBox="0 0 49 48" fill="none" xmlns="http://www.w3.org/2000/svg">
<rect x="0.333374" width="48" height="48" rx="24" fill="#2D66F4"/>
<path fill-rule="evenodd" clip-rule="evenodd" d="M10.7084 29.7157C8.82168 27.8369 8.82171 24.7907 10.7084 22.9119L15.8328 17.809C17.4278 16.2208 19.8604 15.9751 21.7144 17.0721C22.288 17.4114 22.2829 18.1898 21.8112 18.6595C21.3396 19.1292 20.5696 19.0888 19.9294 18.9023C19.1095 18.6635 18.1875 18.8661 17.541 19.51L12.4165 24.6129C11.4732 25.5523 11.4732 27.0753 12.4165 28.0148C13.3599 28.9542 14.8894 28.9542 15.8327 28.0148L26.0814 17.8091C27.9682 15.9303 31.0271 15.9303 32.9139 17.8091L38.0383 22.9119C39.925 24.7907 39.925 27.8369 38.0383 29.7157C36.1516 31.5945 33.0926 31.5945 31.2059 29.7157L29.4978 28.0148L27.3626 30.1409C25.7677 31.7292 23.335 31.9748 21.4809 30.8778C20.9075 30.5385 20.9125 29.7602 21.3842 29.2905C21.8559 28.8207 22.6258 28.8611 23.2661 29.0476C24.0859 29.2864 25.0079 29.0838 25.6545 28.44L27.8507 26.253C28.7603 25.3472 30.2352 25.3472 31.1449 26.253L32.914 28.0148C33.8574 28.9541 35.3868 28.9541 36.3302 28.0148C37.2735 27.0753 37.2735 25.5523 36.3302 24.6129L31.2057 19.51C30.2624 18.5706 28.7329 18.5706 27.7896 19.51L17.5409 29.7157C15.6541 31.5945 12.5951 31.5945 10.7084 29.7157Z" fill="white"/>
</svg>
