<svg width="48" height="48" viewBox="0 0 48 48" fill="none" xmlns="http://www.w3.org/2000/svg">
<rect x="6.10352e-05" width="48" height="48" rx="24" fill="#F3F3F3"/>
<path d="M13.1693 12.0849L27.6001 11.019C29.3728 10.8669 29.8282 10.9694 30.9428 11.7797L35.5493 15.0249C36.309 15.583 36.562 15.735 36.562 16.3427V34.1405C36.562 35.2559 36.157 35.9157 34.739 36.0164L17.9811 37.0314C16.917 37.0818 16.4103 36.9297 15.8529 36.2196L12.4607 31.8084C11.8523 30.9965 11.6001 30.3888 11.6001 29.6784V13.8583C11.6001 12.9463 12.0051 12.1858 13.1693 12.0849Z" fill="white"/>
<path fill-rule="evenodd" clip-rule="evenodd" d="M27.6001 11.019L13.1693 12.0849C12.0051 12.1858 11.6001 12.9463 11.6001 13.8583V29.6784C11.6001 30.3888 11.8523 30.9965 12.4607 31.8084L15.8529 36.2196C16.4103 36.9297 16.917 37.0818 17.9811 37.0314L34.739 36.0164C36.157 35.9157 36.562 35.2559 36.562 34.1405V16.3427C36.562 15.7663 36.3346 15.6004 35.6643 15.1086L30.9428 11.7797C29.8282 10.9694 29.3728 10.8669 27.6001 11.019ZM18.36 16.0516C16.9916 16.1437 16.6812 16.1646 15.904 15.5326L13.9282 13.9611C13.7274 13.7576 13.8283 13.5039 14.3343 13.4533L28.207 12.4395C29.372 12.3378 29.9786 12.7439 30.4343 13.0986L32.8135 14.8225C32.9153 14.8739 33.1682 15.1772 32.8639 15.1772L18.5373 16.0396L18.36 16.0516ZM16.7647 33.9887V18.8797C16.7647 18.2199 16.9673 17.9156 17.574 17.8644L34.0289 16.9011C34.587 16.8507 34.8392 17.2054 34.8392 17.8642V32.8724C34.8392 33.5323 34.7375 34.0904 33.8265 34.1407L18.0802 35.0535C17.1692 35.1039 16.7647 34.8005 16.7647 33.9887ZM32.3084 19.6898C32.4093 20.1462 32.3084 20.6026 31.852 20.6547L31.093 20.8052V31.9604C30.434 32.3151 29.8274 32.5178 29.3204 32.5178C28.5101 32.5178 28.3077 32.264 27.7008 31.504L22.7378 23.6957V31.2503L24.3078 31.6057C24.3078 31.6057 24.3078 32.5185 23.0411 32.5185L19.549 32.7212C19.4473 32.5178 19.549 32.011 19.9029 31.9101L20.8149 31.6571V21.6685L19.5493 21.566C19.4475 21.1096 19.7005 20.4505 20.4099 20.3994L24.1568 20.1472L29.3206 28.0565V21.0592L28.0044 20.908C27.9027 20.3491 28.3077 19.943 28.8137 19.8935L32.3084 19.6898Z" fill="black"/>
</svg>
