<svg width="24" height="24" viewBox="0 0 24 24" fill="none" xmlns="http://www.w3.org/2000/svg">
<path d="M24 3C24 1.34315 22.6569 0 21 0C19.3431 0 18 1.34315 18 3C18 4.3215 18.8544 5.44342 20.041 5.84346V11.0721H18.5039V13.0721H20.041C21.1456 13.0721 22.041 12.1767 22.041 11.0721V5.81446C23.1847 5.39127 24 4.29084 24 3Z" fill="#757575"/>
<path d="M5.81671 1.96509C5.39518 0.818168 4.29314 0 3 0C1.34315 0 0 1.34315 0 3C0 4.65685 1.34315 6 3 6C4.31923 6 5.43957 5.14848 5.84139 3.96509H10.9355V5.49677H12.9355V3.96509C12.9355 2.86052 12.0401 1.96509 10.9355 1.96509H5.81671Z" fill="#757575"/>
<path d="M3.88281 18.132C5.10881 18.5089 6 19.6504 6 21C6 22.6569 4.65685 24 3 24C1.34315 24 0 22.6569 0 21C0 19.738 0.77924 18.658 1.88281 18.2149V13.0165C1.88281 11.912 2.77824 11.0165 3.88281 11.0165H5.49747V13.0165H3.88281V18.132Z" fill="#757575"/>
<path d="M24 21C24 19.3431 22.6569 18 21 18C19.6891 18 18.5746 18.8408 18.1663 20.0125H12.9355V18.5032H10.9355V20.0125C10.9355 21.117 11.8309 22.0125 12.9355 22.0125H18.1751C18.5905 23.1711 19.6984 24 21 24C22.6569 24 24 22.6569 24 21Z" fill="#757575"/>
<path d="M17 9C17 7.89543 16.1046 7 15 7H9C7.89543 7 7 7.89543 7 9V15C7 16.1046 7.89543 17 9 17H15C16.1046 17 17 16.1046 17 15V9Z" fill="#757575"/>
</svg>
