<svg width="20" height="16" viewBox="0 0 20 16" fill="none" xmlns="http://www.w3.org/2000/svg">
<path fill-rule="evenodd" clip-rule="evenodd" d="M3 0C1.34315 0 0 1.34315 0 3V13C0 14.6569 1.34315 16 3 16H17C18.6569 16 20 14.6569 20 13V3C20 1.34315 18.6569 0 17 0H3ZM2.82551 2.01517C2.88218 2.0052 2.94048 2 3 2H17C17.0595 2 17.1178 2.0052 17.1745 2.01517L10 6.79817L2.82551 2.01517ZM2 3.86853V13C2 13.5523 2.44772 14 3 14H17C17.5523 14 18 13.5523 18 13V3.86855L10.5547 8.83207C10.2188 9.056 9.78121 9.056 9.44531 8.83207L2 3.86853Z" fill="#616161"/>
</svg>
