<svg width="23" height="22" viewBox="0 0 23 22" fill="none" xmlns="http://www.w3.org/2000/svg">
<path fill-rule="evenodd" clip-rule="evenodd" d="M0 3C0 1.34315 1.34315 0 3 0H19C20.6569 0 22 1.34315 22 3V3.83346C22 4.02722 21.8186 4.16962 21.626 4.14901C21.5199 4.13766 21.4122 4.13184 21.3031 4.13184H14C12.386 4.13184 11.0696 5.40646 11.0027 7.00403H2V17C2 17.5523 2.44772 18 3 18H10.7C10.8657 18 11 18.1343 11 18.3V19C11 19.2416 11 19.4748 11 19.7C11 19.8657 10.8657 20 10.7 20H3C1.34315 20 0 18.6569 0 17V3ZM4.00586 4.56601C4.55814 4.56601 5.00586 4.1183 5.00586 3.56601C5.00586 3.01373 4.55814 2.56601 4.00586 2.56601C3.45357 2.56601 3.00586 3.01373 3.00586 3.56601C3.00586 4.1183 3.45357 4.56601 4.00586 4.56601ZM7.00586 4.56601C7.55814 4.56601 8.00586 4.1183 8.00586 3.56601C8.00586 3.01373 7.55814 2.56601 7.00586 2.56601C6.45357 2.56601 6.00586 3.01373 6.00586 3.56601C6.00586 4.1183 6.45357 4.56601 7.00586 4.56601ZM11.0059 3.56601C11.0059 4.1183 10.5581 4.56601 10.0059 4.56601C9.45358 4.56601 9.00586 4.1183 9.00586 3.56601C9.00586 3.01373 9.45358 2.56601 10.0059 2.56601C10.5581 2.56601 11.0059 3.01373 11.0059 3.56601Z" fill="#757575"/>
<path d="M3.73027 10C3.73027 9.44771 4.17799 9 4.73027 9H9.74881C10.3011 9 10.7488 9.44772 10.7488 10V14.9973C10.7488 15.5496 10.3011 15.9973 9.74881 15.9973H4.73027C4.17799 15.9973 3.73027 15.5496 3.73027 14.9973V10Z" fill="#757575"/>
<path fill-rule="evenodd" clip-rule="evenodd" d="M12.3789 7.12274C12.3789 6.30109 13.045 5.63501 13.8666 5.63501H21.3053C22.1269 5.63501 22.793 6.30109 22.793 7.12274V20.5123C22.793 21.3339 22.1269 22 21.3053 22H13.8666C13.045 22 12.3789 21.3339 12.3789 20.5123V7.12274ZM15.3544 17.5368C14.9435 17.5368 14.6105 17.8699 14.6105 18.2807C14.6105 18.6915 14.9435 19.0245 15.3544 19.0245H19.8175C20.2284 19.0245 20.5614 18.6915 20.5614 18.2807C20.5614 17.8699 20.2284 17.5368 19.8175 17.5368H15.3544ZM16.4702 6.7508C16.2647 6.7508 16.0982 6.91732 16.0982 7.12274C16.0982 7.32815 16.2647 7.49467 16.4702 7.49467H18.7017C18.9072 7.49467 19.0737 7.32815 19.0737 7.12274C19.0737 6.91732 18.9072 6.7508 18.7017 6.7508H16.4702ZM14.541 10.2219C14.541 9.66964 14.9887 9.22192 15.541 9.22192H19.5439C20.0962 9.22192 20.5439 9.66964 20.5439 10.2219V14.3458C20.5439 14.8981 20.0962 15.3458 19.5439 15.3458H15.541C14.9887 15.3458 14.541 14.8981 14.541 14.3458V10.2219Z" fill="#757575"/>
</svg>
