<svg width="24" height="24" viewBox="0 0 24 24" fill="none" xmlns="http://www.w3.org/2000/svg">
<path d="M16.4197 21.006V22.139C16.4197 22.8017 15.8825 23.339 15.2197 23.339H8.78008C8.11734 23.339 7.58008 22.8017 7.58008 22.139V18.3945C7.58008 17.7317 8.11734 17.1945 8.78008 17.1945H15.2197C15.8825 17.1945 16.4197 17.7317 16.4197 18.3945V19.206H21.7986C21.9642 19.206 22.0986 19.0717 22.0986 18.906V5.19696C22.0986 5.03128 21.9642 4.89696 21.7986 4.89696L19.5892 4.89212L20.4672 5.99157C20.7774 6.37998 20.7139 6.94629 20.3255 7.25646C19.9371 7.56663 19.3708 7.50321 19.0607 7.1148L17.3107 4.92344C17.279 4.88379 17.2497 4.84296 17.2226 4.80111C17.2226 4.80111 16.9176 4.40369 16.9258 3.98038C16.9339 3.55706 17.2226 3.1736 17.2226 3.1736C17.2657 3.10697 17.3146 3.04304 17.3692 2.9825L19.0958 1.06915C19.4288 0.700133 19.9979 0.670931 20.3669 1.00393C20.7359 1.33693 20.7651 1.90603 20.4321 2.27505L19.6948 3.09212L21.7986 3.09697C22.9584 3.09697 23.8986 4.03717 23.8986 5.19696V18.906C23.8986 20.0658 22.9584 21.006 21.7986 21.006H16.4197Z" fill="#757575"/>
<path d="M2.22109 3.09725H7.58008V2.44011C7.58008 1.77737 8.11734 1.24011 8.78008 1.24011H15.2197C15.8825 1.24011 16.4197 1.77737 16.4197 2.44011V6.18464C16.4197 6.84739 15.8825 7.38464 15.2197 7.38464H8.78008C8.11734 7.38464 7.58008 6.84739 7.58008 6.18464V4.89725L2.22109 4.89725C2.05541 4.89725 1.92109 5.03156 1.92109 5.19725L1.92109 18.9063C1.92109 19.0719 2.05541 19.2063 2.22109 19.2063H4.35918L3.49124 18.1194C3.18107 17.731 3.24449 17.1647 3.6329 16.8545C4.02131 16.5444 4.58761 16.6078 4.89779 16.9962L6.64776 19.1875C6.69069 19.2413 6.72938 19.2972 6.76385 19.3549C6.76385 19.3549 7.0516 19.7066 7.0516 20.0961C7.0516 20.4856 6.76385 20.8923 6.76385 20.8923C6.7143 20.9753 6.65609 21.0544 6.58926 21.1285L4.86269 23.0418C4.52969 23.4109 3.96059 23.4401 3.59157 23.1071C3.22255 22.7741 3.19334 22.205 3.52634 21.8359L4.27502 21.0063H2.22109C1.06129 21.0063 0.121094 20.0661 0.121094 18.9063V5.19725C0.121094 4.03745 1.06129 3.09725 2.22109 3.09725Z" fill="#757575"/>
<path d="M8.78008 9.21741C8.11734 9.21741 7.58008 9.75467 7.58008 10.4174V14.1619C7.58008 14.8247 8.11734 15.3619 8.78008 15.3619H15.2197C15.8825 15.3619 16.4197 14.8247 16.4197 14.1619V10.4174C16.4197 9.75467 15.8825 9.21741 15.2197 9.21741H8.78008Z" fill="#757575"/>
</svg>
